HIERARCHY
ROOT hip
{
	OFFSET 0.000000 0.000000 0.000000
	CHANNELS 6 Xposition Yposition Zposition Xrotation Zrotation Yrotation 
	JOINT abdomen
	{
		OFFSET 0.000000 3.422050 0.000000
		CHANNELS 3 Xrotation Zrotation Yrotation 
		JOINT chest
		{
			OFFSET 0.000000 8.486693 -0.684411
			CHANNELS 3 Xrotation Zrotation Yrotation 
			JOINT neck
			{
				OFFSET 0.000000 10.266162 -0.273764
				CHANNELS 3 Xrotation Zrotation Yrotation 
				JOINT head
				{
					OFFSET 0.000000 3.148285 0.000000
					CHANNELS 3 Xrotation Zrotation Yrotation 
					End Site
					{
						OFFSET 0.000000 3.148289 0.000000
					}
				}
			}
			JOINT lCollar
			{
				OFFSET 3.422053 6.707223 -0.821293
				CHANNELS 3 Yrotation Zrotation Xrotation 
				JOINT lShldr
				{
					OFFSET 3.285171 0.000000 0.000000
					CHANNELS 3 Zrotation Yrotation Xrotation 
					JOINT lForeArm
					{
						OFFSET 10.129278 0.000000 0.000000
						CHANNELS 3 Yrotation Zrotation Xrotation 
						JOINT lHand
						{
							OFFSET 8.486692 0.000000 0.000000
							CHANNELS 3 Zrotation Yrotation Xrotation 
							End Site
							{
								OFFSET 4.106464 0.000000 0.000000
							}
						}
					}
				}
			}
			JOINT rCollar
			{
				OFFSET -3.558935 6.707223 -0.821293
				CHANNELS 3 Yrotation Zrotation Xrotation 
				JOINT rShldr
				{
					OFFSET -3.148289 0.000000 0.000000
					CHANNELS 3 Zrotation Yrotation Xrotation 
					JOINT rForeArm
					{
						OFFSET -10.266159 0.000000 0.000000
						CHANNELS 3 Yrotation Zrotation Xrotation 
						JOINT rHand
						{
							OFFSET -8.349810 0.000000 0.000000
							CHANNELS 3 Zrotation Yrotation Xrotation 
							End Site
							{
								OFFSET -4.106464 0.000000 0.000000
							}
						}
					}
				}
			}
		}
	}
	JOINT lThigh
	{
		OFFSET 5.338403 -1.642589 1.368821
		CHANNELS 3 Xrotation Zrotation Yrotation 
		JOINT lShin
		{
			OFFSET -2.053232 -20.121670 0.000000
			CHANNELS 3 Xrotation Zrotation Yrotation 
			JOINT lFoot
			{
				OFFSET 0.000000 -19.300380 -1.231939
				CHANNELS 3 Xrotation Yrotation Zrotation 
				End Site
				{
					OFFSET 0.000000 -2.463878 4.653993
				}
			}
		}
	}
	JOINT rThigh
	{
		OFFSET -5.338403 -1.642589 1.368821
		CHANNELS 3 Xrotation Zrotation Yrotation 
		JOINT rShin
		{
			OFFSET 2.053232 -20.121670 0.000000
			CHANNELS 3 Xrotation Zrotation Yrotation 
			JOINT rFoot
			{
				OFFSET 0.000000 -19.300380 -1.231939
				CHANNELS 3 Xrotation Yrotation Zrotation 
				End Site
				{
					OFFSET 0.000000 -2.463878 4.653993
				}
			}
		}
	}
}
MOTION
Frames: 14
Frame Time: 0.033264
0.000000 43.528500 0.000000 0.000000 0.000000 0.000000 0.000000 0.000000 0.000000 0.000000 0.000000 0.000000 0.000000 0.000000 0.000000 0.000000 0.000000 0.000000 0.000000 0.000000 0.000000 0.000000 0.000000 0.000000 0.000000 0.000000 0.000000 0.000000 0.000000 0.000000 0.000000 0.000000 0.000000 0.000000 0.000000 0.000000 0.000000 0.000000 0.000000 0.000000 0.000000 0.000000 0.000000 0.000000 0.000000 0.000000 0.000000 0.000000 0.000000 0.000000 0.000000 0.000000 0.000000 0.000000 0.000000 0.000000 0.000000 0.000000 0.000000 0.000000 
3.583443 5.245853 -28.634636 -89.998909 14.997362 -89.998909 -14.658951 -12.476895 -3.030840 -8.848791 -2.911833 -0.071142 -2.004991 8.992908 -0.001564 14.998176 0.000000 0.000000 -1.433497 -5.594757 -7.531882 -55.767582 -27.940065 -27.866325 -18.391417 -53.248505 -8.589867 -42.356743 -0.188492 -3.308465 7.383890 21.725180 2.301536 58.234303 23.672798 -3.754177 49.377682 8.411425 -77.400612 63.773216 -29.079702 16.167641 -37.987976 19.808811 11.327015 63.122490 -42.200741 -15.090383 24.172623 10.563607 16.151781 -18.946562 6.317071 -15.135345 83.144020 -27.435701 -24.003056 11.103908 10.309642 13.346407 
3.485321 5.245853 -28.634636 -89.999916 13.561816 -89.999916 -13.938007 -12.477077 -3.030944 -7.252240 -2.911878 -0.071161 -2.223448 8.977498 -0.003459 14.297703 0.000000 0.000000 -1.464012 -5.145049 -8.318268 -55.767582 -27.940065 -27.866325 -18.391417 -53.248505 -8.589867 -42.331318 -0.638732 -3.349520 7.383890 21.725180 2.301536 58.234310 23.672800 -3.754177 49.377682 8.411425 -77.400612 63.773216 -29.079704 16.167641 -36.547016 19.468071 11.065018 62.985813 -41.907364 -14.860902 23.958157 10.530372 15.721737 -17.116140 6.287698 -15.048472 82.597244 -27.337370 -23.757620 11.103907 10.309642 13.346408 
3.387199 5.245853 -28.634636 -90.000908 12.122626 -90.000908 -13.216606 -12.477260 -3.031050 -5.650645 -2.911924 -0.071181 -2.441944 8.962081 -0.005294 13.595533 0.000000 0.000000 -1.488332 -4.694518 -9.104671 -55.767586 -27.940067 -27.866325 -18.391418 -53.248512 -8.589867 -42.305565 -1.089068 -3.390790 7.383890 21.725182 2.301536 58.234303 23.672798 -3.754177 49.377682 8.411425 -77.400612 63.773216 -29.079702 16.167641 -35.102905 19.132610 10.793715 62.851280 -41.613525 -14.633360 23.743393 10.498705 15.291467 -15.278288 6.255444 -14.962240 82.051270 -27.236935 -23.513395 11.103908 10.309642 13.346408 
3.289078 5.245853 -28.634636 -90.001839 10.680209 -90.001839 -12.494802 -12.477441 -3.031159 -4.044605 -2.911968 -0.071203 -2.660479 8.946654 -0.007070 12.891719 0.000000 0.000000 -1.506447 -4.243300 -9.891087 -55.767586 -27.940067 -27.866325 -18.391418 -53.248505 -8.589868 -42.279476 -1.539483 -3.432279 7.383890 21.725182 2.301536 58.234310 23.672800 -3.754177 49.377686 8.411427 -77.400612 63.773216 -29.079704 16.167643 -33.656059 18.802809 10.513331 62.718922 -41.319275 -14.407751 23.528358 10.468623 14.861012 -13.433915 6.220325 -14.876787 81.506142 -27.134418 -23.270424 11.103907 10.309642 13.346408 
3.190956 5.245853 -28.634636 -90.002762 9.235042 -90.002762 -11.772652 -12.477617 -3.031270 -2.434742 -2.912013 -0.071226 -2.879050 8.931216 -0.008787 12.186309 0.000000 0.000000 -1.518350 -3.791538 -10.677515 -55.767578 -27.940063 -27.866325 -18.391415 -53.248505 -8.589866 -42.253056 -1.989964 -3.473992 7.383890 21.725178 2.301536 58.234295 23.672794 -3.754177 49.377682 8.411425 -77.400612 63.773216 -29.079702 16.167641 -32.206905 18.479059 10.224111 62.588684 -41.024601 -14.184031 23.313065 10.440120 14.430373 -11.583958 6.182368 -14.792264 80.961891 -27.029827 -23.028727 11.103908 10.309641 13.346406 
3.092834 5.245853 -28.634636 -90.003670 7.787544 -90.003662 -11.050213 -12.477794 -3.031383 -0.821675 -2.912057 -0.071251 -3.097655 8.915767 -0.010445 11.479347 0.000000 0.000000 -1.524037 -3.339372 -11.463957 -55.767582 -27.940063 -27.866325 -18.391417 -53.248505 -8.589867 -42.226295 -2.440496 -3.515931 7.383890 21.725178 2.301536 58.234303 23.672798 -3.754177 49.377682 8.411424 -77.400612 63.773212 -29.079702 16.167637 -30.755892 18.161722 9.926301 62.460522 -40.729523 -13.962170 23.097534 10.413204 13.999579 -9.729361 6.141610 -14.708807 80.418549 -26.923168 -22.788328 11.103908 10.309642 13.346407 
2.994713 5.245853 -28.634636 -90.004532 6.338202 -90.004524 -10.327546 -12.477968 -3.031498 0.793964 -2.912100 -0.071276 -3.316296 8.900313 -0.012043 10.770885 0.000000 0.000000 -1.523506 -2.886944 -12.250411 -55.767582 -27.940065 -27.866325 -18.391417 -53.248505 -8.589867 -42.199181 -2.891064 -3.558102 7.383890 21.725180 2.301536 58.234303 23.672798 -3.754177 49.377682 8.411425 -77.400612 63.773216 -29.079702 16.167641 -29.303469 17.851170 9.620195 62.334412 -40.434036 -13.742131 22.881790 10.387880 13.568654 -7.871082 6.098092 -14.626554 79.876137 -26.814474 -22.549274 11.103908 10.309642 13.346407 
2.896591 5.245853 -28.634636 -90.005371 4.887458 -90.005371 -9.604706 -12.478145 -3.031617 2.411536 -2.912142 -0.071303 -3.534967 8.884845 -0.013582 10.060973 0.000000 0.000000 -1.516755 -2.434395 -13.036872 -55.767582 -27.940065 -27.866325 -18.391418 -53.248512 -8.589868 -42.171722 -3.341654 -3.600509 7.383890 21.725180 2.301536 58.234303 23.672798 -3.754179 49.377686 8.411427 -77.400612 63.773216 -29.079704 16.167641 -27.850094 17.547737 9.306077 62.210346 -40.138184 -13.523901 22.665848 10.364150 13.137616 -6.010098 6.051871 -14.545645 79.334702 -26.703749 -22.311581 11.103908 10.309642 13.346407 
2.798470 5.245853 -28.634636 -90.006210 3.435792 -90.006210 -8.881747 -12.478316 -3.031736 4.030400 -2.912184 -0.071331 -3.753670 8.869374 -0.015061 9.349659 0.000000 0.000000 -1.503787 -1.981868 -13.823349 -55.767586 -27.940067 -27.866323 -18.391417 -53.248505 -8.589867 -42.143921 -3.792252 -3.643154 7.383890 21.725180 2.301536 58.234310 23.672798 -3.754176 49.377686 8.411424 -77.400612 63.773224 -29.079704 16.167641 -26.396236 17.251760 8.984261 62.088280 -39.841972 -13.307441 22.449730 10.342018 12.706489 -4.147393 6.003010 -14.466216 78.794296 -26.591032 -22.075293 11.103907 10.309642 13.346408 
2.700348 5.245853 -28.634636 -90.007004 1.983647 -90.007004 -8.158734 -12.478487 -3.031858 5.649911 -2.912225 -0.071361 -3.972401 8.853892 -0.016480 8.636995 0.000000 0.000000 -1.484608 -1.529504 -14.609835 -55.767586 -27.940069 -27.866329 -18.391418 -53.248512 -8.589868 -42.115765 -4.242844 -3.686045 7.383891 21.725182 2.301535 58.234303 23.672798 -3.754177 49.377686 8.411424 -77.400612 63.773224 -29.079704 16.167639 -24.942368 16.963556 8.655069 61.968178 -39.545387 -13.092718 22.233452 10.321484 12.275288 -2.283947 5.951579 -14.388391 78.254890 -26.476311 -21.840416 11.103908 10.309642 13.346407 
2.602226 5.245853 -28.634636 -90.007805 0.531511 -90.007797 -7.435719 -12.478659 -3.031983 7.269423 -2.912265 -0.071391 -4.191159 8.838402 -0.017840 7.923033 0.000000 0.000000 -1.459224 -1.077447 -15.396335 -55.767578 -27.940062 -27.866322 -18.391415 -53.248501 -8.589865 -42.087250 -4.693414 -3.729183 7.383890 21.725178 2.301536 58.234303 23.672798 -3.754178 49.377682 8.411425 -77.400612 63.773216 -29.079702 16.167641 -23.488974 16.683428 8.318844 61.850021 -39.248474 -12.879713 22.017040 10.302552 11.844039 -0.420750 5.897658 -14.312294 77.716583 -26.359629 -21.607002 11.103906 10.309641 13.346407 
2.504105 5.245853 -28.634636 -90.008553 -0.920160 -90.008553 -6.712763 -12.478827 -3.032110 8.888288 -2.912304 -0.071423 -4.409943 8.822904 -0.019140 7.207824 0.000000 0.000000 -1.427643 -0.625837 -16.182838 -55.767582 -27.940065 -27.866325 -18.391415 -53.248505 -8.589866 -42.058380 -5.143948 -3.772575 7.383890 21.725178 2.301536 58.234303 23.672798 -3.754177 49.377678 8.411427 -77.400612 63.773205 -29.079702 16.167643 -22.036543 16.411655 7.975935 61.733784 -38.951225 -12.668395 21.800507 10.285223 11.412762 1.441208 5.841335 -14.238044 77.179375 -26.240990 -21.375061 11.103908 10.309641 13.346406 
2.405983 5.245853 -28.634636 -90.009315 -2.370905 -90.009315 -5.989918 -12.478992 -3.032238 10.505860 -2.912342 -0.071455 -4.628750 8.807397 -0.020381 6.491422 0.000000 0.000000 -1.389879 -0.174815 -16.969358 -55.767582 -27.940065 -27.866325 -18.391417 -53.248505 -8.589867 -42.029144 -5.594433 -3.816224 7.383890 21.725180 2.301536 58.234303 23.672798 -3.754177 49.377682 8.411425 -77.400612 63.773216 -29.079702 16.167641 -20.585571 16.148508 7.626713 61.619442 -38.653656 -12.458736 21.583872 10.269500 10.981480 3.300949 5.782706 -14.165758 76.643303 -26.120419 -21.144625 11.103908 10.309642 13.346407 
